<svg width="22" height="23" viewBox="0 0 22 23" fill="none" xmlns="http://www.w3.org/2000/svg">
<path d="M20 8.02197H19V6.02197C19 5.89697 18.972 5.77597 18.927 5.66097C18.911 5.61997 18.886 5.58697 18.865 5.54897C18.837 5.49797 18.818 5.44297 18.781 5.39697L14.781 0.396973C14.591 0.160973 14.304 0.0219727 14 0.0219727H4C3.448 0.0219727 3 0.469973 3 1.02197V8.02197H2C0.897 8.02197 0 8.91897 0 10.022V17.022C0 18.125 0.897 19.022 2 19.022H3V21.022C3 21.575 3.448 22.022 4 22.022H18C18.553 22.022 19 21.575 19 21.022V19.022H20C21.103 19.022 22 18.125 22 17.022V10.022C22 8.91897 21.103 8.02197 20 8.02197ZM15.92 5.02197H14V2.62297L15.92 5.02197ZM5 2.02197H12V6.02197C12 6.57397 12.447 7.02197 13 7.02197H17V8.02197H5V2.02197ZM17 20.022H5V19.022H17V20.022ZM20 17.022H2L1.999 10.022H2H20V17.022Z" fill="#47b69a"/>
<path d="M15 10.522C14.447 10.522 14 10.97 14 11.522V15.522C14 16.075 14.447 16.522 15 16.522C15.553 16.522 16 16.075 16 15.522V15.022H17.5C18.053 15.022 18.5 14.575 18.5 14.022C18.5 13.469 18.053 13.022 17.5 13.022H16V12.522H17.5C18.053 12.522 18.5 12.075 18.5 11.522C18.5 10.97 18.053 10.522 17.5 10.522H15Z" fill="#47b69a"/>
<path d="M5.75 10.522H4C3.448 10.522 3 10.97 3 11.522V15.522C3 16.075 3.448 16.522 4 16.522C4.552 16.522 5 16.075 5 15.522V15.022H5.75C6.991 15.022 8 14.012 8 12.772C8 11.532 6.991 10.522 5.75 10.522ZM5.75 13.022H5V12.522H5.75C5.888 12.522 6 12.634 6 12.772C6 12.91 5.888 13.022 5.75 13.022Z" fill="#47b69a"/>
<path d="M10.5 10.522H9.5C8.948 10.522 8.5 10.97 8.5 11.522V15.522C8.5 16.075 8.948 16.522 9.5 16.522H10.5C12.154 16.522 13.5 15.176 13.5 13.522C13.5 11.868 12.154 10.522 10.5 10.522ZM10.5 14.522V12.522C11.051 12.522 11.5 12.97 11.5 13.522C11.5 14.074 11.051 14.522 10.5 14.522Z" fill="#47b69a"/>
<path d="M9 4.02197H7C6.448 4.02197 6 4.46997 6 5.02197C6 5.57397 6.448 6.02197 7 6.02197H9C9.552 6.02197 10 5.57397 10 5.02197C10 4.46997 9.552 4.02197 9 4.02197Z" fill="#47b69a"/>
</svg>
