<svg width="22" height="22" viewBox="0 0 22 22" fill="none" xmlns="http://www.w3.org/2000/svg">
<path d="M15.923 10.618C15.872 10.495 15.799 10.385 15.706 10.292L12.707 7.293C12.316 6.902 11.684 6.902 11.293 7.293C10.902 7.684 10.902 8.316 11.293 8.707L12.586 10H7C6.448 10 6 10.448 6 11C6 11.553 6.448 12 7 12H12.586L11.293 13.293C10.902 13.684 10.902 14.316 11.293 14.707C11.488 14.902 11.744 15 12 15C12.256 15 12.512 14.902 12.707 14.707L15.706 11.708C15.799 11.616 15.872 11.505 15.923 11.382C16.024 11.138 16.024 10.862 15.923 10.618Z" fill="black"/>
<path d="M18 0H4C1.794 0 0 1.794 0 4V18C0 20.206 1.794 22 4 22H18C20.206 22 22 20.206 22 18V4C22 1.794 20.206 0 18 0ZM20 18C20 19.103 19.103 20 18 20H4C2.897 20 2 19.103 2 18V4C2 2.897 2.897 2 4 2H18C19.103 2 20 2.897 20 4V18Z" fill="black"/>
</svg>
